2026-05-17 21:27:09.060776
the command->:
ffmpeg -i X:/EG/1778778655426.mp4 -vf setpts=PTS/1 -af atempo=1 -y G:/L-pythonproject/MAX/FGT/FGT/picture\devrd.mp4


ffmpeg version 8.0.1-essentials_build-www.gyan.dev Copyright (c) 2000-2025 the FFmpeg developers
  built with gcc 15.2.0 (Rev8, Built by MSYS2 project)
  configuration: --enable-gpl --enable-version3 --enable-static --disable-w32threads --disable-autodetect --enable-fontconfig --enable-iconv --enable-gnutls --enable-libxml2 --enable-gmp --enable-bzlib --enable-lzma --enable-zlib --enable-libsrt --enable-libssh --enable-libzmq --enable-avisynth --enable-sdl2 --enable-libwebp --enable-libx264 --enable-libx265 --enable-libxvid --enable-libaom --enable-libopenjpeg --enable-libvpx --enable-mediafoundation --enable-libass --enable-libfreetype --enable-libfribidi --enable-libharfbuzz --enable-libvidstab --enable-libvmaf --enable-libzimg --enable-amf --enable-cuda-llvm --enable-cuvid --enable-dxva2 --enable-d3d11va --enable-d3d12va --enable-ffnvcodec --enable-libvpl --enable-nvdec --enable-nvenc --enable-vaapi --enable-openal --enable-libgme --enable-libopenmpt --enable-libopencore-amrwb --enable-libmp3lame --enable-libtheora --enable-libvo-amrwbenc --enable-libgsm --enable-libopencore-amrnb --enable-libopus --enable-libspeex --enable-libvorbis --enable-librubberband
  libavutil      60.  8.100 / 60.  8.100
  libavcodec     62. 11.100 / 62. 11.100
  libavformat    62.  3.100 / 62.  3.100
  libavdevice    62.  1.100 / 62.  1.100
  libavfilter    11.  4.100 / 11.  4.100
  libswscale      9.  1.100 /  9.  1.100
  libswresample   6.  1.100 /  6.  1.100
Input #0, mov,mp4,m4a,3gp,3g2,mj2, from 'X:/EG/1778778655426.mp4':
  Metadata:
    minor_version   : 512
    major_brand     : isom
    compatible_brands: isomiso2mp41
    moov_pos        : 28
    AIGC            : {"Label": "1", "ContentProducer": "001191110102MACQD9K64010000", "ProduceID": "f8d4f84e-6759-49f1-9eae-aadc248179ea", "ReservedCode1": ""}
    comment         : vid:v0269cg10004d8302uqljht7mv16tvr0
    LvMetaInfo      : {"data":{"anchorId":"44986489069502210","anchorName":"QUkg6KeG6aKR55Sf5oiQ","appVersion":"12.3.0","creationId":"44986489069502210","os":"android","product":"doubao"},"source_type":""}
    mdat_pos        : 9495
    encoder         : Lavf57.71.100
  Duration: 00:00:10.08, start: 0.000000, bitrate: 653 kb/s
  Stream #0:0[0x1](und): Audio: aac (LC) (mp4a / 0x6134706D), 44100 Hz, stereo, fltp, 128 kb/s (default)
    Metadata:
      handler_name    : SoundHandler
      vendor_id       : [0][0][0][0]
  Stream #0:1[0x2](und): Video: hevc (Main) (hvc1 / 0x31637668), yuv420p(tv), 720x1280, 518 kb/s, 24 fps, 24 tbr, 12288 tbn (default)
    Metadata:
      handler_name    : VideoHandler
      vendor_id       : [0][0][0][0]
Stream mapping:
  Stream #0:1 -> #0:0 (hevc (native) -> h264 (libx264))
  Stream #0:0 -> #0:1 (aac (native) -> aac (native))
Press [q] to stop, [?] for help
[libx264 @ 0000024fb721dc80] using cpu capabilities: MMX2 SSE2Fast SSSE3 SSE4.2 AVX FMA3 BMI2 AVX2 AVX512
[libx264 @ 0000024fb721dc80] profile High, level 3.1, 4:2:0, 8-bit
[libx264 @ 0000024fb721dc80] 264 - core 165 r3223 0480cb0 - H.264/MPEG-4 AVC codec - Copyleft 2003-2025 - http://www.videolan.org/x264.html - options: cabac=1 ref=3 deblock=1:0:0 analyse=0x3:0x113 me=hex subme=7 psy=1 psy_rd=1.00:0.00 mixed_ref=1 me_range=16 chroma_me=1 trellis=1 8x8dct=1 cqm=0 deadzone=21,11 fast_pskip=1 chroma_qp_offset=-2 threads=24 lookahead_threads=4 sliced_threads=0 nr=0 decimate=1 interlaced=0 bluray_compat=0 constrained_intra=0 bframes=3 b_pyramid=2 b_adapt=1 b_bias=0 direct=1 weightb=1 open_gop=0 weightp=2 keyint=250 keyint_min=24 scenecut=40 intra_refresh=0 rc_lookahead=40 rc=crf mbtree=1 crf=23.0 qcomp=0.60 qpmin=0 qpmax=69 qpstep=4 ip_ratio=1.40 aq=1:1.00
Output #0, mp4, to 'G:/L-pythonproject/MAX/FGT/FGT/picture\devrd.mp4':
  Metadata:
    minor_version   : 512
    major_brand     : isom
    compatible_brands: isomiso2mp41
    moov_pos        : 28
    AIGC            : {"Label": "1", "ContentProducer": "001191110102MACQD9K64010000", "ProduceID": "f8d4f84e-6759-49f1-9eae-aadc248179ea", "ReservedCode1": ""}
    comment         : vid:v0269cg10004d8302uqljht7mv16tvr0
    LvMetaInfo      : {"data":{"anchorId":"44986489069502210","anchorName":"QUkg6KeG6aKR55Sf5oiQ","appVersion":"12.3.0","creationId":"44986489069502210","os":"android","product":"doubao"},"source_type":""}
    mdat_pos        : 9495
    encoder         : Lavf62.3.100
  Stream #0:0(und): Video: h264 (avc1 / 0x31637661), yuv420p(tv, progressive), 720x1280, q=2-31, 24 fps, 12288 tbn (default)
    Metadata:
      encoder         : Lavc62.11.100 libx264
      handler_name    : VideoHandler
      vendor_id       : [0][0][0][0]
    Side data:
      cpb: bitrate max/min/avg: 0/0/0 buffer size: 0 vbv_delay: N/A
  Stream #0:1(und): Audio: aac (LC) (mp4a / 0x6134706D), 44100 Hz, stereo, fltp, 128 kb/s (default)
    Metadata:
      encoder         : Lavc62.11.100 aac
      handler_name    : SoundHandler
      vendor_id       : [0][0][0][0]
frame=  150 fps=0.0 q=28.0 size=     512KiB time=00:00:06.16 bitrate= 680.2kbits/s speed=  12x elapsed=0:00:00.51    
[out#0/mp4 @ 0000024fb7220900] video:776KiB audio:163KiB subtitle:0KiB other streams:0KiB global headers:0KiB muxing overhead: 0.958858%
frame=  241 fps=0.0 q=-1.0 Lsize=     948KiB time=00:00:09.95 bitrate= 780.2kbits/s speed=15.4x elapsed=0:00:00.64    
[libx264 @ 0000024fb721dc80] frame I:1     Avg QP:18.29  size: 36221
[libx264 @ 0000024fb721dc80] frame P:63    Avg QP:18.61  size:  8667
[libx264 @ 0000024fb721dc80] frame B:177   Avg QP:24.42  size:  1197
[libx264 @ 0000024fb721dc80] consecutive B-frames:  0.4%  5.0%  0.0% 94.6%
[libx264 @ 0000024fb721dc80] mb I  I16..4: 22.6% 51.2% 26.2%
[libx264 @ 0000024fb721dc80] mb P  I16..4:  2.0%  2.1%  0.4%  P16..4: 20.7% 10.1%  6.0%  0.0%  0.0%    skip:58.7%
[libx264 @ 0000024fb721dc80] mb B  I16..4:  0.1%  0.1%  0.0%  B16..8: 18.0%  1.7%  0.1%  direct: 0.3%  skip:79.6%  L0:45.3% L1:47.3% BI: 7.4%
[libx264 @ 0000024fb721dc80] 8x8 transform intra:48.4% inter:56.7%
[libx264 @ 0000024fb721dc80] coded y,uvDC,uvAC intra: 24.8% 51.2% 21.6% inter: 3.0% 4.0% 0.2%
[libx264 @ 0000024fb721dc80] i16 v,h,dc,p: 42% 46%  8%  4%
[libx264 @ 0000024fb721dc80] i8 v,h,dc,ddl,ddr,vr,hd,vl,hu: 23% 26% 39%  2%  2%  2%  2%  2%  2%
[libx264 @ 0000024fb721dc80] i4 v,h,dc,ddl,ddr,vr,hd,vl,hu: 29% 29% 20%  4%  3%  3%  4%  3%  4%
[libx264 @ 0000024fb721dc80] i8c dc,h,v,p: 47% 28% 21%  4%
[libx264 @ 0000024fb721dc80] Weighted P-Frames: Y:0.0% UV:0.0%
[libx264 @ 0000024fb721dc80] ref P L0: 66.8%  7.5% 18.5%  7.1%
[libx264 @ 0000024fb721dc80] ref B L0: 85.6% 11.8%  2.6%
[libx264 @ 0000024fb721dc80] ref B L1: 96.0%  4.0%
[libx264 @ 0000024fb721dc80] kb/s:632.67
[aac @ 0000024fb7706b00] Qavg: 895.716


